<svg id="Layer_1" data-name="Layer 1" xmlns="http://www.w3.org/2000/svg" viewBox="0 0 325.51 289.34"><defs><style>.cls-1{fill:#6563cb;}.cls-2{fill:#9897f0;}.cls-3{fill:#fb357c;}</style></defs><title>Pelias - Logo</title><path class="cls-1" d="M27.4,259.31a4,4,0,0,0,4,4h9.09a2,2,0,0,0,2-2V240.66H59.13c15.29,0,26.59-9.75,26.59-23.57s-11.3-23.57-26.59-23.57H29.4a2,2,0,0,0-2,2ZM42.49,227V207.24h15c7.5,0,12.63,3.86,12.63,9.85S65,227,57.48,227Z"/><path class="cls-1" d="M116.74,251.43a12.86,12.86,0,0,1-12.63-9.55H140.4a2,2,0,0,0,2-2c-.64-18.65-10.29-30.31-26.35-30.31-15.5,0-27.31,11.48-27.31,27.33,0,16.15,12.32,27.63,28.13,27.63,7.07,0,15.24-2.67,20.22-6.8a1.84,1.84,0,0,0,.07-2.72l-6.79-6.86a2.28,2.28,0,0,0-2.91-.16A19.94,19.94,0,0,1,116.74,251.43Zm-.11-28.75c6.06,0,10,3.35,11.4,8.53H104.31A12.84,12.84,0,0,1,116.63,222.68Z"/><path class="cls-1" d="M149.46,259.31a4,4,0,0,0,4,4h9a2,2,0,0,0,2-2v-67a2,2,0,0,0-2-2h-11a2,2,0,0,0-2,2Z"/><path class="cls-1" d="M182,203.58a8,8,0,1,0-8.21-8.13A8.09,8.09,0,0,0,182,203.58Zm-7.6,55.73a4,4,0,0,0,4,4h9a2,2,0,0,0,2-2V212.79a2,2,0,0,0-2-2h-11a2,2,0,0,0-2,2Z"/><path class="cls-1" d="M223.07,209.57a47.82,47.82,0,0,0-20.37,4.92,2,2,0,0,0-.89,2.67l3.2,6.28a2.07,2.07,0,0,0,2.71.91,28.89,28.89,0,0,1,12-2.89c8.72,0,12.21,4.88,12.21,10.46v1a38.55,38.55,0,0,0-13.55-2.64c-12.32,0-22.07,7.11-22.07,17.47,0,10.06,8.73,16.76,20,16.76,5.75,0,11.81-2.23,15.6-6.5v3.28a2,2,0,0,0,2,2h10.48a2,2,0,0,0,2-2V231.92C246.37,218.21,236.93,209.57,223.07,209.57Zm-3.39,44.7c-5.14,0-8.93-2.64-8.93-6.91s4.31-7.41,9.75-7.41a33.79,33.79,0,0,1,11.39,1.93v4.87C230.87,251.63,225.43,254.27,219.68,254.27Z"/><path class="cls-1" d="M275.84,264.53c13,0,21.56-6.6,21.56-17,0-11.48-10.16-14.53-19.3-16.87-7.19-1.93-9.34-2.74-9.34-5.58,0-1.83,2.56-3.15,6.26-3.15a29.29,29.29,0,0,1,13.1,3.65,2.1,2.1,0,0,0,2.81-.76l4.1-7.15a1.93,1.93,0,0,0-.66-2.63A38.69,38.69,0,0,0,275,209.57c-12.53,0-20.84,7.12-20.74,17.07.1,10.36,8.52,13.31,19.41,16C279.13,244,283,245,283,248.28c0,2.33-2.88,4-6.88,4a30,30,0,0,1-16-4.72,2.1,2.1,0,0,0-2.89.61l-4.39,7a1.92,1.92,0,0,0,.48,2.59A40.08,40.08,0,0,0,275.84,264.53Z"/><path class="cls-1" d="M154.08,25.13a57.11,57.11,0,0,0-48.76,56.49c0,1.22,0,2.43.11,3.64h-.11v3.17l42.89-33.74a37.07,37.07,0,0,1-1.77-11.09A26.39,26.39,0,0,1,154.08,25.13Z"/><path class="cls-1" d="M182,85.6,207,117.31a57.08,57.08,0,0,0-1.52-73.21C205.16,61.89,190.58,77.77,182,85.6Z"/><path class="cls-1" d="M147,143.08a56.52,56.52,0,0,1-41.7,18.29V109.13A53.08,53.08,0,0,1,147,143.08Z"/><path class="cls-2" d="M152.21,65.53l47,59.73A56.86,56.86,0,0,1,162.4,138.7c-1.81,0-3.6-.08-5.37-.25A64.13,64.13,0,0,0,110,98.78Z"/><path class="cls-3" d="M194.44,45.18c0,14.35-18.5,30.93-18.5,30.93s-18.5-16.58-18.5-30.93a18.51,18.51,0,0,1,37,0Z"/></svg>