<svg id="Layer_1" data-name="Layer 1" xmlns="http://www.w3.org/2000/svg" viewBox="0 0 529.03 190"><title>Pelias - Logo</title><path d="M192.69,123.1a4.67,4.67,0,0,0,4.67,4.67H208a2.34,2.34,0,0,0,2.34-2.34V101.31h19.42c17.87,0,31.05-11.39,31.05-27.52s-13.18-27.52-31.05-27.52H195a2.33,2.33,0,0,0-2.34,2.33Zm17.63-37.8v-23h17.5c8.75,0,14.75,4.51,14.75,11.51s-6,11.51-14.75,11.51Z"/><path d="M297,113.89c-7.31,0-12.71-4.51-14.74-11.15h42.38a2.28,2.28,0,0,0,2.3-2.34c-.75-21.78-12-35.39-30.78-35.39-18.1,0-31.89,13.41-31.89,31.91,0,18.87,14.39,32.27,32.85,32.27,8.26,0,17.8-3.12,23.62-7.94a2.13,2.13,0,0,0,.07-3.17l-7.93-8a2.64,2.64,0,0,0-3.39-.18A23.36,23.36,0,0,1,297,113.89Zm-.12-33.58c7.08,0,11.63,3.92,13.31,10H282.52A15,15,0,0,1,296.9,80.31Z"/><path d="M335.24,123.1a4.68,4.68,0,0,0,4.68,4.67h10.49a2.34,2.34,0,0,0,2.34-2.34V47.18a2.34,2.34,0,0,0-2.34-2.34H337.58a2.34,2.34,0,0,0-2.34,2.34Z"/><path d="M373.18,58a9.37,9.37,0,1,0-9.59-9.49A9.45,9.45,0,0,0,373.18,58Zm-8.87,65.09a4.67,4.67,0,0,0,4.67,4.67h10.5a2.34,2.34,0,0,0,2.34-2.34V68.77a2.34,2.34,0,0,0-2.34-2.34H366.65a2.34,2.34,0,0,0-2.34,2.34Z"/><path d="M421.2,65c-7.93,0-15.77,2-23.78,5.74a2.29,2.29,0,0,0-1.05,3.12l3.75,7.34a2.41,2.41,0,0,0,3.15,1.06,33.72,33.72,0,0,1,14-3.38c10.2,0,14.27,5.69,14.27,12.22V92.3a45.06,45.06,0,0,0-15.83-3.09c-14.38,0-25.77,8.31-25.77,20.41,0,11.74,10.19,19.57,23.38,19.57,6.71,0,13.79-2.61,18.22-7.59v3.83a2.34,2.34,0,0,0,2.34,2.34h12.23a2.34,2.34,0,0,0,2.34-2.34V91.11C448.42,75.09,437.39,65,421.2,65Zm-4,52.2c-6,0-10.43-3.09-10.43-8.07s5-8.66,11.39-8.66a39.43,39.43,0,0,1,13.31,2.26v5.69C430.31,114.12,424,117.21,417.24,117.21Z"/><path d="M482.84,129.19c15.22,0,25.17-7.71,25.17-19.81,0-13.41-11.87-17-22.54-19.69-8.39-2.26-10.91-3.21-10.91-6.53,0-2.13,3-3.68,7.32-3.68a34.26,34.26,0,0,1,15.3,4.27,2.45,2.45,0,0,0,3.28-.89l4.78-8.35a2.25,2.25,0,0,0-.76-3.07A45.15,45.15,0,0,0,481.88,65c-14.63,0-24.34,8.3-24.22,19.93.12,12.1,9.95,15.54,22.66,18.63,6.35,1.66,10.91,2.84,10.91,6.64,0,2.73-3.36,4.63-8,4.63a35,35,0,0,1-18.7-5.52,2.44,2.44,0,0,0-3.36.72L456,118.17a2.23,2.23,0,0,0,.56,3A46.82,46.82,0,0,0,482.84,129.19Z"/><path d="M78,15.44A66.69,66.69,0,0,0,21,81.41c0,1.43,0,2.85.14,4.25H21v3.71L71.11,50A43.15,43.15,0,0,1,69,37,30.85,30.85,0,0,1,78,15.44Z"/><path d="M110.58,86.07l29.13,37a66.68,66.68,0,0,0-1.77-85.5C137.62,58.37,120.6,76.92,110.58,86.07Z"/><path d="M69.72,153.19A66,66,0,0,1,21,174.56v-61A62,62,0,0,1,69.72,153.19Z"/><path d="M75.78,62.62l54.89,69.75a66.42,66.42,0,0,1-43,15.71c-2.11,0-4.21-.1-6.27-.29a74.89,74.89,0,0,0-55-46.34Z"/><path d="M125.09,38.85c0,16.77-21.6,36.13-21.6,36.13S81.88,55.62,81.88,38.85a21.61,21.61,0,0,1,43.21,0Z"/></svg>