<svg id="Layer_1" data-name="Layer 1" xmlns="http://www.w3.org/2000/svg" viewBox="0 0 529.03 190"><defs><style>.cls-1{fill:#6563cb;}.cls-2{fill:#9897f0;}.cls-3{fill:#fb357c;}</style></defs><title>Pelias - Logo</title><path class="cls-1" d="M193.09,122.94a4.65,4.65,0,0,0,4.65,4.65H208.3a2.32,2.32,0,0,0,2.32-2.33v-24h19.31c17.77,0,30.88-11.33,30.88-27.37S247.7,46.54,229.93,46.54H195.41a2.32,2.32,0,0,0-2.32,2.32Zm17.53-37.59V62.46H228c8.7,0,14.66,4.49,14.66,11.45s-6,11.44-14.66,11.44Z"/><path class="cls-1" d="M296.84,113.78c-7.27,0-12.64-4.48-14.66-11.09h42.15a2.26,2.26,0,0,0,2.28-2.32c-.74-21.66-11.95-35.19-30.6-35.19-18,0-31.72,13.33-31.72,31.73C264.29,115.67,278.6,129,297,129c8.21,0,17.7-3.1,23.49-7.9a2.13,2.13,0,0,0,.07-3.15l-7.88-8a2.65,2.65,0,0,0-3.38-.19A23.19,23.19,0,0,1,296.84,113.78Zm-.12-33.38c7,0,11.57,3.89,13.24,9.91H282.42A14.87,14.87,0,0,1,296.72,80.4Z"/><path class="cls-1" d="M334.85,122.94a4.65,4.65,0,0,0,4.65,4.65h10.44a2.32,2.32,0,0,0,2.32-2.33V47.44a2.32,2.32,0,0,0-2.32-2.32H337.17a2.32,2.32,0,0,0-2.32,2.32Z"/><path class="cls-1" d="M372.58,58.22A9.32,9.32,0,1,0,363,48.78,9.39,9.39,0,0,0,372.58,58.22Zm-8.82,64.72a4.65,4.65,0,0,0,4.64,4.65h10.44a2.32,2.32,0,0,0,2.32-2.33V68.92a2.32,2.32,0,0,0-2.32-2.33H366.08a2.32,2.32,0,0,0-2.32,2.33Z"/><path class="cls-1" d="M420.33,65.18c-7.89,0-15.68,2-23.65,5.7a2.27,2.27,0,0,0-1,3.1l3.72,7.3a2.41,2.41,0,0,0,3.14,1.06A33.5,33.5,0,0,1,416.39,79c10.14,0,14.19,5.66,14.19,12.15v1.18a45,45,0,0,0-15.74-3.07c-14.3,0-25.63,8.26-25.63,20.3,0,11.67,10.13,19.46,23.25,19.46,6.68,0,13.71-2.59,18.12-7.55v3.81a2.33,2.33,0,0,0,2.33,2.33h12.16a2.32,2.32,0,0,0,2.32-2.33V91.13C447.39,75.2,436.43,65.18,420.33,65.18Zm-3.94,51.91c-6,0-10.37-3.07-10.37-8s5-8.61,11.33-8.61a39.46,39.46,0,0,1,13.23,2.24v5.67C429.39,114,423.07,117.09,416.39,117.09Z"/><path class="cls-1" d="M481.62,129c15.14,0,25-7.67,25-19.7,0-13.33-11.8-16.87-22.42-19.58-8.34-2.25-10.85-3.19-10.85-6.49,0-2.13,3-3.66,7.28-3.66a34,34,0,0,1,15.21,4.24,2.43,2.43,0,0,0,3.26-.88l4.77-8.31a2.25,2.25,0,0,0-.77-3.05,44.84,44.84,0,0,0-22.47-6.39c-14.55,0-24.21,8.25-24.09,19.82.12,12,9.9,15.45,22.54,18.52,6.32,1.65,10.85,2.83,10.85,6.61,0,2.71-3.34,4.6-8,4.6a34.78,34.78,0,0,1-18.59-5.49A2.44,2.44,0,0,0,460,110L455,118a2.22,2.22,0,0,0,.55,3A46.63,46.63,0,0,0,481.62,129Z"/><path class="cls-1" d="M79,15.89A66.31,66.31,0,0,0,22.37,81.48c0,1.43,0,2.84.13,4.24h-.13V89.4L72.18,50.21a43.38,43.38,0,0,1-2.06-12.88A30.61,30.61,0,0,1,79,15.89Z"/><path class="cls-1" d="M111.43,86.12l29,36.82a66.32,66.32,0,0,0-1.77-85C138.32,58.58,121.4,77,111.43,86.12Z"/><path class="cls-1" d="M70.8,152.87a65.64,65.64,0,0,1-48.43,21.24V113.44A61.61,61.61,0,0,1,70.8,152.87Z"/><path class="cls-2" d="M76.83,62.8l54.58,69.37a66,66,0,0,1-42.74,15.61q-3.17,0-6.24-.29a74.46,74.46,0,0,0-54.67-46.07Z"/><path class="cls-3" d="M125.87,39.17c0,16.66-21.49,35.92-21.49,35.92S82.9,55.83,82.9,39.17a21.49,21.49,0,0,1,43,0Z"/></svg>