<svg id="Layer_1" data-name="Layer 1" xmlns="http://www.w3.org/2000/svg" viewBox="0 0 500 500"><defs><style>.cls-1{fill:#eeeefd;}.cls-2{fill:#6563cb;}.cls-3{fill:#9897f0;}.cls-4{fill:#fb357c;}</style></defs><title>GitHub Bot Avatar</title><path class="cls-1" d="M122.08,252a127.18,127.18,0,0,0,19.33,67.57,58.07,58.07,0,0,1-11.18-112.51A127.16,127.16,0,0,0,122.08,252Z"/><path class="cls-1" d="M147.68,224a32.12,32.12,0,0,1,32.08-32.08,31.12,31.12,0,0,1,3.76.22A32.09,32.09,0,0,1,211.84,224a31.82,31.82,0,0,1-1.29,9h0a32.19,32.19,0,0,1-30.79,23.08A32.12,32.12,0,0,1,147.68,224Z"/><path class="cls-1" d="M352.32,224a32.06,32.06,0,0,1-56.74,20.48A31.76,31.76,0,0,1,289.45,233h0a32,32,0,0,1,.41-19.29,32.16,32.16,0,0,1,26.62-21.56,31.12,31.12,0,0,1,3.76-.22,31.83,31.83,0,0,1,15.23,3.86A32.09,32.09,0,0,1,352.32,224Z"/><path class="cls-1" d="M409,262a58.15,58.15,0,0,1-50.44,57.57,127.85,127.85,0,0,0,11.18-112.51A58.17,58.17,0,0,1,409,262Z"/><path class="cls-2" d="M122.08,252a127.18,127.18,0,0,0,19.33,67.57,58.07,58.07,0,0,1-11.18-112.51A127.16,127.16,0,0,0,122.08,252Z"/><path class="cls-2" d="M409,262a58.15,58.15,0,0,1-50.44,57.57,127.85,127.85,0,0,0,11.18-112.51A58.17,58.17,0,0,1,409,262Z"/><path class="cls-3" d="M329.7,324.92c-.38.43-.77.85-1.19,1.27a108,108,0,0,1-157,0c-.42-.42-.81-.84-1.19-1.27Z"/><path class="cls-4" d="M352.32,224a32.06,32.06,0,0,1-56.74,20.48A31.76,31.76,0,0,1,289.45,233h0a32,32,0,0,1,.41-19.29,32.16,32.16,0,0,1,26.62-21.56,31.12,31.12,0,0,1,3.76-.22,31.83,31.83,0,0,1,15.23,3.86A32.09,32.09,0,0,1,352.32,224Z"/><path class="cls-3" d="M357.79,259.83a107.18,107.18,0,0,1-13.67,45.25H155.88a107.18,107.18,0,0,1-13.67-45.25,51.86,51.86,0,0,0,64.56,8.5,52.74,52.74,0,0,0,10.25-8.2,51.9,51.9,0,0,0-37.26-88c-.84,0-1.68,0-2.51.06a107.66,107.66,0,0,1,64.33-27.89q4.17-.33,8.42-.33a107.71,107.71,0,0,1,72.75,28.22c-.83,0-1.67-.06-2.51-.06a51.9,51.9,0,0,0-37.26,88,52.74,52.74,0,0,0,10.25,8.2,51.86,51.86,0,0,0,64.56-8.5Z"/><path class="cls-4" d="M211.84,224a31.82,31.82,0,0,1-1.29,9h0a32.19,32.19,0,0,1-30.79,23.08,32.08,32.08,0,0,1,0-64.16,31.12,31.12,0,0,1,3.76.22A32.09,32.09,0,0,1,211.84,224Z"/><path class="cls-2" d="M271.58,104a20.08,20.08,0,0,1-10.16,17.45,20,20,0,0,1-19.84,0,20.07,20.07,0,0,1,0-34.9,20,20,0,0,1,19.84,0A20.08,20.08,0,0,1,271.58,104Z"/></svg>