<?xml version="1.0" encoding="utf-8"?>
<!-- Generator: Adobe Illustrator 23.0.0, SVG Export Plug-In . SVG Version: 6.00 Build 0)  -->
<svg version="1.1" id="Layer_1" xmlns="http://www.w3.org/2000/svg" xmlns:xlink="http://www.w3.org/1999/xlink" x="0px" y="0px"
	 viewBox="0 0 2083.1 894.4" style="enable-background:new 0 0 2083.1 894.4;" xml:space="preserve">
<style type="text/css">
	.st0{fill:#EEEEFD;}
	.st1{fill:#6563CB;}
	.st2{fill:#9897F0;}
	.st3{fill:#FB357C;}
	.st4{fill:none;stroke:#EEEEFD;stroke-width:28.35;stroke-miterlimit:10;}
	.st5{fill:#9897F0;stroke:#9897F0;stroke-width:28.3465;stroke-miterlimit:10;}
	.st6{fill:none;stroke:#9897F0;stroke-width:28.3465;stroke-miterlimit:10;}
	.st7{opacity:5.000000e-02;fill:#9897F0;stroke:#9897F0;stroke-miterlimit:10;}
	.st8{opacity:5.000000e-02;fill:#9897F0;}
	.st9{fill:none;}
	.st10{fill:#FFFFFF;}
	.st11{opacity:0.15;clip-path:url(#SVGID_2_);}
	.st12{opacity:5.000000e-02;clip-path:url(#SVGID_2_);fill:#9897F0;stroke:#9897F0;stroke-miterlimit:10;}
	.st13{opacity:5.000000e-02;clip-path:url(#SVGID_2_);fill:#9897F0;}
</style>
<title>SVG</title>
<rect y="308.4" class="st0" width="401" height="401"/>
<path class="st1" d="M186.7,400c-44.8,6.6-77.9,45-77.9,90.3c0,2,0.1,3.9,0.2,5.8h-0.2v5.1l68.6-54c-1.8-5.7-2.8-11.7-2.8-17.7
	C174.5,418.5,178.9,407.9,186.7,400z"/>
<path class="st1" d="M231.3,496.7l39.9,50.7c13-16.2,20-36.3,20-57.1c0-22.1-7.9-43.4-22.5-60C268.4,458.8,245.1,484.2,231.3,496.7z
	"/>
<path class="st1" d="M175.4,588.5c-17.1,18.7-41.3,29.3-66.7,29.2v-83.5C139.2,538.9,164.7,559.7,175.4,588.5z"/>
<path class="st2" d="M183.7,464.6l75.1,95.5c-16.4,13.9-37.3,21.5-58.8,21.5c-2.9,0-5.8-0.1-8.6-0.4c-12.6-32.6-41-56.5-75.2-63.4
	L183.7,464.6z"/>
<path class="st3" d="M251.2,432c0,22.9-29.6,49.5-29.6,49.5S192.1,455,192.1,432c0-16,13.2-28.9,29.6-28.9S251.2,416.1,251.2,432z"
	/>
<g>
	<g>
		<path class="st4" d="M406.3,130.6"/>
	</g>
</g>
<rect x="0.5" y="-2330" class="st1" width="1500" height="500"/>
<line class="st5" x1="328.7" y1="-1695.6" x2="1050.3" y2="-2417.2"/>
<line class="st5" x1="686.7" y1="-1695.6" x2="1191.5" y2="-2200.4"/>
<path class="st5" d="M1271.5-2136.1c-91.1-91.7-182.7-182.8-274.2-273.9l274.1,274C1271.4-2136,1271.5-2136.1,1271.5-2136.1z"/>
<path class="st5" d="M1753.3-1654c-116.9-117-234.5-234.7-351.8-352c0,0,0,0,0,0L1753.3-1654"/>
<path class="st5" d="M1401.8-2140.3c103.7-103.7,207.7-208.7,312.4-312.4"/>
<path class="st5" d="M913-1651.6c118.8-118.8,237.9-237.9,356.6-356.6c0,0,0,0,0,0L913-1651.6"/>
<path class="st5" d="M1046-1518.6c140.1-140.1,280.5-280.5,420.4-420.4c0,0,0,0,0,0L1046-1518.6"/>
<path class="st6" d="M235.5-2196"/>
<path class="st6" d="M56.5-2375"/>
<line class="st5" x1="567.5" y1="-1615.1" x2="-230.5" y2="-2413.2"/>
<line class="st5" x1="-75.8" y1="-1648.5" x2="802" y2="-2526.4"/>
<line class="st5" x1="-286.8" y1="-1681.5" x2="200.6" y2="-2168.9"/>
<line class="st6" x1="349.5" y1="-2074" x2="528.5" y2="-1895"/>
<line class="st6" x1="903.5" y1="-2273" x2="1082.5" y2="-2094"/>
<line class="st6" x1="56.5" y1="-2375" x2="201.5" y2="-2230"/>
<line class="st6" x1="1332.5" y1="-2366" x2="1477.5" y2="-2221"/>
<circle class="st6" cx="1334.5" cy="-2080" r="82"/>
<circle class="st6" cx="231.5" cy="-2200" r="40"/>
<line class="st5" x1="266.7" y1="-2235" x2="1144.5" y2="-3112.9"/>
<rect x="577.5" y="-2466.9" transform="matrix(0.7071 0.7071 -0.7071 0.7071 -1366.538 -1110.6189)" class="st7" width="159.8" height="524.1"/>
<polyline class="st8" points="-28.4,-1759 -88,-1818.6 107.5,-2014 167.1,-1954.4 -28.4,-1759 "/>
<circle class="st8" cx="1336" cy="-2080" r="37"/>
<path class="st7" d="M903.1-1703.6l319.6-319.6c-8.7-17.2-13.7-36.7-13.7-57.3c0-17.2,3.4-33.7,9.7-48.6l-18.5-18.5l-370.6,370.6"/>
<rect x="0.5" y="-2330" transform="matrix(-1 -1.224647e-16 1.224647e-16 -1 1501 -4160)" class="st9" width="1500" height="500"/>
<g>
	<path class="st10" d="M502.8-2019.1c0,4,3.3,7.3,7.3,7.3h16.6c2,0,3.7-1.6,3.7-3.7v-37.8h30.4c28,0,48.6-17.8,48.6-43.1
		s-20.6-43.1-48.6-43.1h-54.4c-2,0-3.7,1.6-3.7,3.7V-2019.1z M530.4-2078.2v-36h27.4c13.7,0,23.1,7.1,23.1,18s-9.4,18-23.1,18H530.4
		z"/>
	<path class="st10" d="M666.2-2033.5c-11.5,0-19.9-7.1-23.1-17.5h66.4c2,0,3.7-1.6,3.6-3.7c-1.2-34.1-18.8-55.4-48.2-55.4
		c-28.3,0-49.9,21-49.9,50c0,29.5,22.5,50.5,51.4,50.5c12.9,0,27.9-4.9,37-12.4c1.5-1.3,1.5-3.6,0.1-5l-12.4-12.5
		c-1.4-1.4-3.7-1.4-5.3-0.3C680.3-2036,672.6-2033.5,666.2-2033.5z M666-2086c11.1,0,18.2,6.1,20.8,15.6h-43.4
		C647-2080.1,655.6-2086,666-2086z"/>
	<path class="st10" d="M726-2019.1c0,4,3.3,7.3,7.3,7.3h16.4c2,0,3.7-1.6,3.7-3.7v-122.5c0-2-1.6-3.7-3.7-3.7h-20.1
		c-2,0-3.7,1.6-3.7,3.7V-2019.1z"/>
	<path class="st10" d="M785.4-2121c8.1,0,14.6-6.7,14.6-14.9c0-7.6-6.6-14.5-14.6-14.5c-8.4,0-15,6.9-15,14.5
		C770.4-2127.7,776.9-2121,785.4-2121z M771.5-2019.1c0,4,3.3,7.3,7.3,7.3h16.4c2,0,3.7-1.6,3.7-3.7v-88.7c0-2-1.6-3.7-3.7-3.7
		h-20.1c-2,0-3.7,1.6-3.7,3.7V-2019.1z"/>
	<path class="st10" d="M860.6-2110c-12.4,0-24.7,3.1-37.2,9c-1.8,0.9-2.6,3.1-1.6,4.9l5.9,11.5c0.9,1.8,3.1,2.5,4.9,1.7
		c6.8-3.1,14.1-5.3,21.9-5.3c16,0,22.3,8.9,22.3,19.1v1.9c-8.3-3.2-16.9-4.8-24.8-4.8c-22.5,0-40.4,13-40.4,31.9
		c0,18.4,16,30.6,36.6,30.6c10.5,0,21.6-4.1,28.5-11.9v6c0,2,1.6,3.7,3.7,3.7h19.2c2,0,3.7-1.6,3.7-3.7v-53.7
		C903.2-2094.2,885.9-2110,860.6-2110z M854.4-2028.3c-9.4,0-16.3-4.8-16.3-12.6c0-7.8,7.9-13.6,17.8-13.6c7.5,0,14.6,1.3,20.8,3.5
		v8.9C874.8-2033.1,864.9-2028.3,854.4-2028.3z"/>
	<path class="st10" d="M957.1-2009.5c23.8,0,39.4-12.1,39.4-31c0-21-18.6-26.6-35.3-30.8c-13.1-3.5-17.1-5-17.1-10.2
		c0-3.3,4.7-5.8,11.5-5.8c7.3,0,16,2.4,24,6.7c1.8,1,4.1,0.4,5.1-1.4l7.5-13.1c1-1.7,0.5-3.8-1.2-4.8c-10.2-6.1-22.7-10.1-35.4-10.1
		c-22.9,0-38.1,13-37.9,31.2c0.2,18.9,15.6,24.3,35.5,29.2c9.9,2.6,17.1,4.5,17.1,10.4c0,4.3-5.3,7.2-12.6,7.2
		c-11.4,0-21.2-3.6-29.3-8.6c-1.8-1.1-4.2-0.6-5.3,1.1l-8,12.7c-1,1.6-0.7,3.7,0.9,4.7C927.4-2014,942.6-2009.5,957.1-2009.5z"/>
</g>
<rect x="515.5" y="258.9" class="st1" width="1500" height="500"/>
<g>
	<defs>
		
			<rect id="SVGID_1_" x="515.5" y="258.9" transform="matrix(-1 -1.224647e-16 1.224647e-16 -1 2531.0193 1017.78)" width="1500" height="500"/>
	</defs>
	<clipPath id="SVGID_2_">
		<use xlink:href="#SVGID_1_"  style="overflow:visible;"/>
	</clipPath>
	<g class="st11">
		<line class="st5" x1="843.7" y1="893.3" x2="1565.3" y2="171.7"/>
		<line class="st5" x1="1201.7" y1="893.3" x2="1706.5" y2="388.5"/>
		<path class="st5" d="M1786.5,452.8c-91.1-91.7-182.7-182.8-274.2-273.9l274.1,274C1786.5,452.8,1786.5,452.8,1786.5,452.8z"/>
		<path class="st5" d="M1916.5,582.9l351.8,351.9C2151.4,817.8,2033.8,700.1,1916.5,582.9C1916.5,582.9,1916.5,582.9,1916.5,582.9z"
			/>
		<path class="st5" d="M1916.8,448.6c103.7-103.7,207.7-208.7,312.4-312.4"/>
		<path class="st5" d="M1784.7,580.7L1428,937.3C1546.9,818.5,1666,699.4,1784.7,580.7C1784.7,580.7,1784.7,580.7,1784.7,580.7z"/>
		<path class="st5" d="M1981.5,649.9L1561,1070.3C1701.1,930.3,1841.6,789.8,1981.5,649.9C1981.5,649.9,1981.5,649.9,1981.5,649.9z"
			/>
		<path class="st6" d="M750.5,392.9"/>
		<path class="st6" d="M571.5,213.9"/>
		<line class="st5" x1="1082.5" y1="973.8" x2="284.5" y2="175.7"/>
		<line class="st5" x1="439.2" y1="940.3" x2="1317" y2="62.5"/>
		<line class="st5" x1="228.2" y1="907.3" x2="715.6" y2="419.9"/>
		<line class="st6" x1="864.5" y1="514.9" x2="1043.5" y2="693.9"/>
		<line class="st6" x1="1418.5" y1="315.9" x2="1597.5" y2="494.9"/>
		<line class="st6" x1="571.5" y1="213.9" x2="716.5" y2="358.9"/>
		<line class="st6" x1="1847.5" y1="222.9" x2="1992.5" y2="367.9"/>
		<circle class="st6" cx="1849.5" cy="508.9" r="82"/>
		<circle class="st6" cx="746.5" cy="388.9" r="40"/>
		<line class="st5" x1="781.7" y1="353.8" x2="1659.5" y2="-524"/>
	</g>
	
		<rect x="1092.5" y="122" transform="matrix(0.7071 0.7071 -0.7071 0.7071 614.9274 -716.5167)" class="st12" width="159.8" height="524.1"/>
	
		<rect x="512.4" y="564.2" transform="matrix(0.7071 0.7071 -0.7071 0.7071 659.0839 -186.3913)" class="st13" width="84.3" height="276.4"/>
	<circle class="st13" cx="1851" cy="508.9" r="37"/>
	<path class="st12" d="M1724,508.4c0-17.2,3.4-33.7,9.7-48.6l-18.5-18.5l-370.6,370.6l73.5,73.5l319.6-319.6
		C1728.9,548.5,1724,529,1724,508.4z"/>
</g>
<g>
	<path class="st10" d="M1017.8,569.8c0,4,3.3,7.3,7.3,7.3h16.6c2,0,3.7-1.6,3.7-3.7v-37.8h30.4c28,0,48.6-17.8,48.6-43.1
		c0-25.3-20.6-43.1-48.6-43.1h-54.4c-2,0-3.7,1.6-3.7,3.7V569.8z M1045.4,510.6v-36h27.4c13.7,0,23.1,7.1,23.1,18
		c0,11-9.4,18-23.1,18H1045.4z"/>
	<path class="st10" d="M1181.2,555.4c-11.5,0-19.9-7.1-23.1-17.5h66.4c2,0,3.7-1.6,3.6-3.7c-1.2-34.1-18.8-55.4-48.2-55.4
		c-28.3,0-49.9,21-49.9,50c0,29.5,22.5,50.5,51.4,50.5c12.9,0,27.9-4.9,37-12.4c1.5-1.3,1.5-3.6,0.1-5l-12.4-12.5
		c-1.4-1.4-3.7-1.4-5.3-0.3C1195.3,552.9,1187.6,555.4,1181.2,555.4z M1181,502.8c11.1,0,18.2,6.1,20.8,15.6h-43.4
		C1162,508.8,1170.6,502.8,1181,502.8z"/>
	<path class="st10" d="M1241,569.8c0,4,3.3,7.3,7.3,7.3h16.4c2,0,3.7-1.6,3.7-3.7V451c0-2-1.6-3.7-3.7-3.7h-20.1
		c-2,0-3.7,1.6-3.7,3.7V569.8z"/>
	<path class="st10" d="M1300.4,467.9c8.1,0,14.6-6.7,14.6-14.9c0-7.6-6.6-14.5-14.6-14.5c-8.4,0-15,6.9-15,14.5
		C1285.4,461.2,1292,467.9,1300.4,467.9z M1286.5,569.8c0,4,3.3,7.3,7.3,7.3h16.4c2,0,3.7-1.6,3.7-3.7v-88.7c0-2-1.6-3.7-3.7-3.7
		h-20.1c-2,0-3.7,1.6-3.7,3.7V569.8z"/>
	<path class="st10" d="M1375.6,478.9c-12.4,0-24.7,3.1-37.2,9c-1.8,0.9-2.6,3.1-1.6,4.9l5.9,11.5c0.9,1.8,3.1,2.5,4.9,1.7
		c6.8-3.1,14.1-5.3,21.9-5.3c16,0,22.3,8.9,22.3,19.1v1.9c-8.3-3.2-16.9-4.8-24.8-4.8c-22.5,0-40.4,13-40.4,31.9
		c0,18.4,16,30.6,36.6,30.6c10.5,0,21.6-4.1,28.5-11.9v6c0,2,1.6,3.7,3.7,3.7h19.2c2,0,3.7-1.6,3.7-3.7v-53.7
		C1418.2,494.7,1400.9,478.9,1375.6,478.9z M1369.4,560.6c-9.4,0-16.3-4.8-16.3-12.6s7.9-13.6,17.8-13.6c7.5,0,14.6,1.3,20.8,3.5
		v8.9C1389.9,555.8,1379.9,560.6,1369.4,560.6z"/>
	<path class="st10" d="M1472.1,579.4c23.8,0,39.4-12.1,39.4-31c0-21-18.6-26.6-35.3-30.8c-13.1-3.5-17.1-5-17.1-10.2
		c0-3.3,4.7-5.8,11.5-5.8c7.3,0,16,2.4,24,6.7c1.8,1,4.1,0.4,5.1-1.4l7.5-13.1c1-1.7,0.5-3.8-1.2-4.8c-10.2-6.1-22.7-10.1-35.4-10.1
		c-22.9,0-38.1,13-37.9,31.2c0.2,18.9,15.6,24.3,35.5,29.2c9.9,2.6,17.1,4.5,17.1,10.4c0,4.3-5.3,7.2-12.6,7.2
		c-11.4,0-21.2-3.6-29.3-8.6c-1.8-1.1-4.2-0.6-5.3,1.1l-8,12.7c-1,1.6-0.7,3.7,0.9,4.7C1442.4,574.9,1457.6,579.4,1472.1,579.4z"/>
</g>
</svg>
