<svg id="Layer_1" data-name="Layer 1" xmlns="http://www.w3.org/2000/svg" viewBox="0 0 64 64"><defs><style>.cls-1{fill:#6563cb;}.cls-2{fill:#9897f0;}.cls-3{fill:#fb357c;}</style></defs><title>Favicon</title><path class="cls-1" d="M28.23,1.19A25.83,25.83,0,0,0,6.17,26.74c0,.55,0,1.1,0,1.65h0v1.43l19.4-15.26a16.78,16.78,0,0,1-.8-5A11.88,11.88,0,0,1,28.23,1.19Z"/><path class="cls-1" d="M40.86,28.54,52.17,42.88a25.82,25.82,0,0,0-.69-33.11C51.33,17.81,44.74,25,40.86,28.54Z"/><path class="cls-1" d="M25,54.54A25.58,25.58,0,0,1,6.16,62.81V39.18A24,24,0,0,1,25,54.54Z"/><path class="cls-2" d="M27.38,19.46l21.26,27A25.68,25.68,0,0,1,32,52.56c-.82,0-1.63,0-2.43-.11a29,29,0,0,0-21.27-18Z"/><path class="cls-3" d="M46.48,10.26c0,6.49-8.36,14-8.36,14s-8.37-7.5-8.37-14a8.37,8.37,0,0,1,16.73,0Z"/></svg>