<svg id="Layer_1" data-name="Layer 1" xmlns="http://www.w3.org/2000/svg" viewBox="0 0 16 16"><defs><style>.cls-1{fill:#6563cb;}.cls-2{fill:#9897f0;}.cls-3{fill:#fb357c;}</style></defs><title>Favicon</title><path class="cls-1" d="M7.05.23A6.5,6.5,0,0,0,1.49,6.67c0,.14,0,.28,0,.42h0v.36L6.38,3.6a4.15,4.15,0,0,1-.2-1.26A3,3,0,0,1,7.05.23Z"/><path class="cls-1" d="M10.23,7.13l2.85,3.61a6.51,6.51,0,0,0-.17-8.35C12.87,4.42,11.21,6.23,10.23,7.13Z"/><path class="cls-1" d="M6.24,13.68a6.46,6.46,0,0,1-4.75,2.09v-6A6,6,0,0,1,6.24,13.68Z"/><path class="cls-2" d="M6.84,4.84l5.36,6.81A6.49,6.49,0,0,1,8,13.18l-.61,0A7.34,7.34,0,0,0,2,8.63Z"/><path class="cls-3" d="M11.65,2.52c0,1.63-2.11,3.53-2.11,3.53S7.43,4.15,7.43,2.52a2.11,2.11,0,0,1,4.22,0Z"/></svg>