<svg id="Layer_1" data-name="Layer 1" xmlns="http://www.w3.org/2000/svg" viewBox="0 0 32 32"><defs><style>.cls-1{fill:#6563cb;}.cls-2{fill:#9897f0;}.cls-3{fill:#fb357c;}</style></defs><title>Favicon</title><path class="cls-1" d="M14.09.39A13.09,13.09,0,0,0,2.91,13.33a7.86,7.86,0,0,0,0,.84h0v.73l9.83-7.74a8.43,8.43,0,0,1-.4-2.54A6,6,0,0,1,14.09.39Z"/><path class="cls-1" d="M20.49,14.25l5.73,7.26a13.07,13.07,0,0,0-.35-16.77C25.8,8.81,22.45,12.45,20.49,14.25Z"/><path class="cls-1" d="M12.47,27.42a12.93,12.93,0,0,1-9.56,4.19v-12A12.18,12.18,0,0,1,12.47,27.42Z"/><path class="cls-2" d="M13.66,9.65,24.43,23.34A13.08,13.08,0,0,1,16,26.42c-.42,0-.83,0-1.24-.06A14.66,14.66,0,0,0,4,17.27Z"/><path class="cls-3" d="M23.34,5c0,3.29-4.24,7.09-4.24,7.09S14.86,8.27,14.86,5a4.24,4.24,0,0,1,8.48,0Z"/></svg>