<?xml version="1.0" encoding="utf-8"?>
<!-- Generator: Adobe Illustrator 23.0.0, SVG Export Plug-In . SVG Version: 6.00 Build 0)  -->
<svg version="1.1" id="Layer_1" xmlns="http://www.w3.org/2000/svg" xmlns:xlink="http://www.w3.org/1999/xlink" x="0px" y="0px"
	 viewBox="0 0 500 500" style="enable-background:new 0 0 500 500;" xml:space="preserve">
<style type="text/css">
	.st0{fill:#6563CB;}
	.st1{fill:#9897F0;}
	.st2{fill:#FB357C;}
</style>
<g>
	<path class="st0" d="M232.84,110.7c-56.4,8.24-99.71,56.81-99.71,115.5c0,2.5,0.08,4.99,0.23,7.45h-0.23v6.49l87.71-69.01
		c-2.28-7.31-3.62-14.91-3.62-22.68C217.21,133.92,223.13,120.68,232.84,110.7z"/>
	<path class="st0" d="M289.95,234.36l51.02,64.84c16.04-19.99,25.63-45.37,25.63-73c0-29.37-10.84-56.2-28.74-76.71
		C337.3,185.86,307.49,218.35,289.95,234.36z"/>
	<path class="st0" d="M218.4,351.9c-21.18,23-51.55,37.4-85.28,37.4V282.47C172.49,288.43,204.91,315.56,218.4,351.9z"/>
	<path class="st1" d="M229.02,193.31l96.1,122.13c-20.32,17.16-46.58,27.5-75.26,27.5c-3.71,0-7.37-0.17-10.99-0.51
		c-15.92-41.17-52.07-72.28-96.26-81.13L229.02,193.31z"/>
	<path class="st2" d="M315.37,151.69c0,29.35-37.83,63.26-37.83,63.26s-37.83-33.91-37.83-63.26c0-20.4,16.94-36.94,37.83-36.94
		C298.43,114.75,315.37,131.28,315.37,151.69z"/>
</g>
</svg>
